<?xml version="1.0" standalone="no"?>
<!DOCTYPE svg PUBLIC "-//W3C//DTD SVG 20010904//EN"
 "http://www.w3.org/TR/2001/REC-SVG-20010904/DTD/svg10.dtd">
<svg version="1.0" xmlns="http://www.w3.org/2000/svg"
 width="512.000000pt" height="512.000000pt" viewBox="0 0 512.000000 512.000000"
 preserveAspectRatio="xMidYMid meet">

<g transform="translate(0.000000,512.000000) scale(0.100000,-0.100000)"
fill="#000000" stroke="none">
<path d="M2495 4786 c-16 -8 -510 -495 -1097 -1083 -1160 -1161 -1091 -1086
-1073 -1180 9 -49 69 -109 118 -118 79 -15 103 -2 234 128 l123 121 2 -1116
c3 -1110 3 -1117 24 -1144 11 -15 33 -37 48 -48 l27 -21 1659 0 1659 0 27 21
c15 11 37 33 48 48 21 27 21 34 24 1144 l2 1116 123 -121 c131 -130 155 -143
234 -128 49 9 109 69 118 118 18 94 87 19 -1073 1181 -625 625 -1080 1074
-1099 1082 -40 17 -89 17 -128 0z m787 -1093 l718 -718 0 -1167 0 -1168 -1440
0 -1440 0 0 1167 0 1168 717 717 c395 395 720 718 723 718 3 0 328 -323 722
-717z"/>
</g>
</svg>
