<?xml version="1.0" standalone="no"?>
<!DOCTYPE svg PUBLIC "-//W3C//DTD SVG 20010904//EN"
 "http://www.w3.org/TR/2001/REC-SVG-20010904/DTD/svg10.dtd">
<svg version="1.0" xmlns="http://www.w3.org/2000/svg"
 width="512.000000pt" height="512.000000pt" viewBox="0 0 512.000000 512.000000"
 preserveAspectRatio="xMidYMid meet">

<g transform="translate(0.000000,512.000000) scale(0.100000,-0.100000)"
fill="#000000" stroke="none">
<path d="M1065 5113 c-525 -70 -929 -439 -1041 -953 -18 -81 -19 -159 -19
-1600 0 -1441 1 -1519 19 -1600 104 -475 461 -832 936 -936 81 -18 159 -19
1600 -19 1440 0 1519 1 1600 19 474 103 832 461 936 936 18 81 19 159 19 1600
0 1441 -1 1519 -19 1600 -102 468 -443 815 -916 933 -85 21 -94 21 -1585 23
-825 1 -1513 -1 -1530 -3z m1720 -1182 c173 -45 360 -164 468 -298 148 -185
211 -364 206 -596 l-2 -118 94 -47 c195 -97 326 -229 419 -424 65 -135 83
-220 83 -383 1 -114 -3 -155 -22 -224 -86 -324 -327 -565 -651 -652 -118 -32
-327 -32 -445 -1 -96 26 -240 96 -313 152 -57 44 -73 48 -93 24 -41 -49 -197
-132 -325 -170 -79 -24 -106 -27 -234 -28 -121 0 -159 4 -230 23 -325 87 -565
328 -651 652 -32 119 -32 329 -1 444 73 264 238 466 481 587 l94 47 -2 118
c-2 79 3 144 14 197 76 365 358 641 728 712 98 18 279 11 382 -15z"/>
<path d="M2449 3780 c-179 -28 -343 -125 -459 -269 -102 -128 -149 -256 -157
-432 l-6 -116 149 -6 c111 -3 168 -10 224 -26 100 -29 222 -89 298 -146 l62
-47 62 47 c79 60 169 105 278 140 73 24 106 28 239 33 l154 5 -6 116 c-8 175
-54 304 -157 432 -97 121 -242 216 -387 253 -77 20 -220 28 -294 16z"/>
<path d="M3065 2790 c-125 -16 -312 -96 -368 -157 -17 -19 -16 -22 27 -87 24
-37 54 -91 66 -121 l22 -54 44 19 c148 64 276 186 353 338 27 54 29 62 14 62
-10 0 -34 2 -53 4 -19 2 -66 0 -105 -4z"/>
<path d="M1896 2754 c53 -128 191 -274 325 -344 44 -23 82 -40 84 -38 1 1 20
37 40 78 21 41 51 95 68 119 l30 44 -28 23 c-116 92 -259 144 -423 151 l-112
6 16 -39z"/>
<path d="M1635 2719 c-91 -47 -134 -80 -207 -157 -76 -81 -130 -171 -166 -280
-22 -67 -26 -95 -26 -212 -1 -115 3 -146 22 -210 79 -252 272 -439 522 -506
89 -24 272 -24 360 0 80 22 189 74 253 121 l48 36 -32 45 c-47 69 -105 199
-130 294 -18 68 -23 112 -23 221 l0 136 -64 28 c-195 85 -360 248 -456 453
-16 34 -32 62 -35 62 -3 0 -33 -14 -66 -31z"/>
<path d="M3381 2685 c-88 -194 -273 -377 -459 -455 l-63 -27 -3 -154 c-2 -109
-8 -173 -21 -219 -21 -80 -82 -212 -126 -276 l-32 -47 28 -23 c164 -131 413
-186 615 -135 271 67 475 267 546 531 23 87 23 261 0 355 -49 202 -189 377
-378 476 l-77 40 -30 -66z"/>
<path d="M2516 2409 c-21 -38 -36 -73 -33 -76 9 -8 144 -9 153 0 8 8 -57 139
-72 144 -5 2 -27 -29 -48 -68z"/>
<path d="M2428 2108 c-7 -71 7 -188 33 -267 24 -74 85 -191 99 -191 16 0 68
100 95 181 29 87 45 202 37 277 l-5 52 -127 0 -127 0 -5 -52z"/>
</g>
</svg>
