<?xml version="1.0" ?><svg style="enable-background:new 0 0 512 512;" version="1.1" viewBox="0 0 512 512" xml:space="preserve" xmlns="http://www.w3.org/2000/svg" xmlns:xlink="http://www.w3.org/1999/xlink"><g id="_x31_57_x2C__Twitter_x2C__Location_x2C__Map"><g id="XMLID_5064_"><path d="M256,291.668c-46.794,0-84.865-38.07-84.865-84.865s38.07-84.865,84.865-84.865    c46.795,0,84.865,38.07,84.865,84.865S302.795,291.668,256,291.668z M256,141.938c-35.767,0-64.865,29.098-64.865,64.865    s29.098,64.865,64.865,64.865s64.865-29.098,64.865-64.865S291.767,141.938,256,141.938z" id="XMLID_8541_" style="fill:#F05026;"/></g><g id="XMLID_5065_"><path d="M256.69,466.003c-2.235,0-4.467-0.746-6.302-2.235    c-43.852-35.586-83.405-78.894-111.374-121.947C108.33,294.586,92.11,248.99,92.11,209.963    c0-90.411,73.555-163.966,163.966-163.966c90.327,0,163.813,73.555,163.813,163.966c0,36.966-18.977,86.08-53.436,138.294    c-30.078,45.577-68.829,88.816-103.659,115.665C260.994,465.311,258.841,466.003,256.69,466.003z M256.077,65.997    c-79.383,0-143.966,64.583-143.966,143.966c0,67.691,57.873,160.645,144.695,233.181    c67.551-55.156,143.084-165.966,143.084-233.181C399.89,130.58,335.375,65.997,256.077,65.997z" id="XMLID_8538_" style="fill:#3E3C3C;"/></g></g><g id="Layer_1"/></svg>