<?xml version="1.0" standalone="no"?>
<!DOCTYPE svg PUBLIC "-//W3C//DTD SVG 20010904//EN"
 "http://www.w3.org/TR/2001/REC-SVG-20010904/DTD/svg10.dtd">
<svg version="1.0" xmlns="http://www.w3.org/2000/svg"
 width="512.000000pt" height="512.000000pt" viewBox="0 0 512.000000 512.000000"
 preserveAspectRatio="xMidYMid meet">

<g transform="translate(0.000000,512.000000) scale(0.100000,-0.100000)"
fill="#000000" stroke="none">
<path d="M390 4138 c-21 -15 -39 -40 -51 -73 -18 -48 -19 -102 -17 -1527 3
-1474 3 -1477 24 -1504 11 -15 33 -37 48 -48 l27 -21 2139 0 2139 0 27 21 c15
11 37 33 48 48 21 27 21 28 21 1526 0 1498 0 1499 -21 1526 -11 15 -33 37 -48
48 l-27 21 -2138 3 -2138 2 -33 -22z m3890 -331 c-30 -19 -430 -264 -888 -545
l-832 -512 -773 537 c-424 295 -776 540 -781 544 -6 5 731 9 1660 9 l1669 0
-55 -33z m-2742 -735 c481 -332 894 -617 919 -632 59 -37 116 -46 165 -26 21
9 433 260 915 558 483 298 893 550 911 561 l32 19 0 -1136 0 -1136 -1920 0
-1920 0 0 1206 c0 961 3 1204 13 1198 6 -4 405 -280 885 -612z"/>
</g>
</svg>
