<?xml version="1.0" standalone="no"?>
<!DOCTYPE svg PUBLIC "-//W3C//DTD SVG 20010904//EN"
 "http://www.w3.org/TR/2001/REC-SVG-20010904/DTD/svg10.dtd">
<svg version="1.0" xmlns="http://www.w3.org/2000/svg"
 width="512.000000pt" height="512.000000pt" viewBox="0 0 512.000000 512.000000"
 preserveAspectRatio="xMidYMid meet">

<g transform="translate(0.000000,512.000000) scale(0.100000,-0.100000)"
fill="#000000" stroke="none">
<path d="M2360 4790 c-353 -44 -675 -189 -940 -423 -243 -214 -433 -510 -544
-847 -75 -229 -74 -220 -87 -949 l-11 -653 -225 -370 c-250 -410 -253 -416
-211 -498 15 -29 37 -53 63 -67 l40 -23 738 0 737 0 0 -32 c1 -66 31 -175 71
-258 104 -209 332 -350 569 -350 237 0 465 141 569 350 40 83 70 192 71 257
l0 33 749 2 c739 3 750 3 777 24 64 48 90 126 63 191 -8 18 -147 196 -311 396
l-296 363 -12 650 c-13 741 -11 727 -112 1033 -212 641 -620 1038 -1184 1151
-116 24 -396 34 -514 20z m460 -334 c514 -111 853 -513 1004 -1191 12 -56 17
-201 26 -730 6 -364 15 -677 21 -697 6 -25 78 -121 219 -295 l210 -258 -1762
-3 c-969 -1 -1763 0 -1766 2 -2 3 72 127 165 277 l168 273 7 676 c9 734 8 723
70 913 41 130 156 356 232 462 240 331 588 537 996 589 73 9 337 -3 410 -18z
m57 -3541 c-14 -101 -86 -198 -182 -245 -72 -35 -198 -35 -270 0 -96 47 -168
144 -182 245 l-6 45 323 0 323 0 -6 -45z"/>
</g>
</svg>
