<?xml version="1.0" standalone="no"?>
<!DOCTYPE svg PUBLIC "-//W3C//DTD SVG 20010904//EN"
 "http://www.w3.org/TR/2001/REC-SVG-20010904/DTD/svg10.dtd">
<svg version="1.0" xmlns="http://www.w3.org/2000/svg"
 width="512.000000pt" height="512.000000pt" viewBox="0 0 512.000000 512.000000"
 preserveAspectRatio="xMidYMid meet">

<g transform="translate(0.000000,512.000000) scale(0.100000,-0.100000)"
fill="#000000" stroke="none">
<path d="M2093 4789 c-741 -57 -1380 -533 -1650 -1232 -78 -204 -123 -450
-123 -682 0 -920 646 -1703 1555 -1885 156 -32 464 -39 625 -16 219 32 413 92
601 187 96 48 275 163 337 216 l33 28 537 -537 c583 -582 567 -569 660 -552
50 9 118 77 127 127 18 92 39 66 -547 653 l-540 542 59 78 c192 253 317 547
367 862 79 494 -45 1011 -341 1425 -70 97 -241 278 -339 358 -239 195 -549
341 -850 399 -91 17 -348 43 -394 38 -8 0 -61 -4 -117 -9z m451 -339 c149 -29
269 -71 411 -141 158 -78 286 -171 415 -299 229 -229 377 -508 442 -832 32
-162 32 -434 0 -596 -31 -154 -72 -275 -143 -417 -78 -158 -171 -286 -299
-415 -229 -229 -508 -377 -832 -442 -162 -32 -434 -32 -596 0 -154 31 -275 72
-417 143 -158 78 -286 171 -415 299 -229 229 -377 508 -442 832 -32 162 -32
434 0 596 31 154 72 275 143 417 78 158 171 286 299 415 229 229 516 381 827
439 154 29 161 29 338 26 113 -2 192 -10 269 -25z"/>
</g>
</svg>
